# xmcd
#
# Track frame offsets: 
#        150
#        21828
#        73190
#        95759
#        105063
#        139863
#        163442
#        186203
#
# Disc length: 2804 seconds
#
# Revision: 0
# Processed by: cddbd v1.5.2PL0 Copyright (c) Steve Scherf et al.
# Submitted via: ExactAudioCopy v0.99pb3
#
DISCID=6e0af208
DTITLE=Devil Blues - Demo - Cratic Session
DYEAR=2005
DGENRE=Blues
TTITLE0=Before you accuse me
TTITLE1=Dream/ Come back to me
TTITLE2=Tell me
TTITLE3=Souns of freedom
TTITLE4=Come fly with me
TTITLE5=It's rock and roll time
TTITLE6=Wolf in my hanhouse
TTITLE7=Come fly with me/radio version
EXTD=
EXTT0=
EXTT1=
EXTT2=
EXTT3=
EXTT4=
EXTT5=
EXTT6=
EXTT7=
PLAYORDER=
